name rise35.5848peak51.9257fall54.8793.mot
datacolumns 19
datarows 17
range 12.44995100000000 12.47661600000000
endheader
time	ground_force1_vx	ground_force1_vy	ground_force1_vz	ground_force1_px	ground_force1_py	ground_force1_pz	ground_force2_vx	ground_force2_vy	ground_force2_vz	ground_force2_px	ground_force2_py	ground_force2_pz	ground_torque1_x	ground_torque1_y	ground_torque1_z	ground_torque2_x	ground_torque2_y	ground_torque2_z	
12.44995100000000	-36.42370200000000	794.65988700000003	56.57841700000000	0.10278900000000	0.00000000000000	0.12584600000000	-2.24279200000000	58.84802500000000	7.41962100000000	0.34133300000000	0.00000000000000	-0.07457300000000	0.00000000000000	19.74978700000000	0.00000000000000	0.00000000000000	5.36338300000000	0.00000000000000	
12.45161300000000	-37.00599400000000	793.46833500000002	56.51951200000000	0.10215700000000	0.00000000000000	0.12575000000000	-2.25239500000000	65.18661400000001	7.97323400000000	0.34450900000000	0.00000000000000	-0.07467600000000	0.00000000000000	19.76201400000000	0.00000000000000	0.00000000000000	5.81133000000000	0.00000000000000	
12.45328600000000	-37.60606900000000	792.16121899999996	56.43781400000000	0.10153500000000	0.00000000000000	0.12564800000000	-2.20374500000000	71.34365699999999	8.45159100000000	0.34741000000000	0.00000000000000	-0.07478000000000	0.00000000000000	19.77593600000000	0.00000000000000	0.00000000000000	6.21125100000000	0.00000000000000	
12.45494400000000	-38.22424200000000	790.73558000000003	56.33266700000000	0.10092000000000	0.00000000000000	0.12554300000000	-2.09650400000000	77.30129700000001	8.85339300000000	0.35006500000000	0.00000000000000	-0.07488500000000	0.00000000000000	19.79162000000000	0.00000000000000	0.00000000000000	6.56161000000000	0.00000000000000	
12.45661900000000	-38.86077400000000	789.18849799999998	56.20344700000000	0.10031400000000	0.00000000000000	0.12543300000000	-1.93199100000000	83.06376800000000	9.18096200000000	0.35250000000000	0.00000000000000	-0.07499300000000	0.00000000000000	19.80912200000000	0.00000000000000	0.00000000000000	6.86355800000000	0.00000000000000	
12.45828500000000	-39.51586600000000	787.51709400000004	56.04956600000000	0.09971500000000	0.00000000000000	0.12531800000000	-1.71279700000000	88.65358200000000	9.43948600000000	0.35473800000000	0.00000000000000	-0.07510300000000	0.00000000000000	19.82848700000000	0.00000000000000	0.00000000000000	7.12041500000000	0.00000000000000	
12.45994600000000	-40.18965700000000	785.71853199999998	55.87047600000000	0.09912300000000	0.00000000000000	0.12519900000000	-1.44237000000000	94.10686200000001	9.63614700000000	0.35679600000000	0.00000000000000	-0.07521700000000	0.00000000000000	19.84974700000000	0.00000000000000	0.00000000000000	7.33705400000000	0.00000000000000	
12.46161200000000	-40.88221700000000	783.79002600000001	55.66566700000000	0.09853600000000	0.00000000000000	0.12507600000000	-1.12460200000000	99.46838600000000	9.77925100000000	0.35869100000000	0.00000000000000	-0.07533300000000	0.00000000000000	19.87292200000000	0.00000000000000	0.00000000000000	7.51927400000000	0.00000000000000	
12.46328600000000	-41.59354700000000	781.72884199999999	55.43467200000000	0.09795500000000	0.00000000000000	0.12494800000000	-0.76345800000000	104.78676800000000	9.87740900000000	0.36043500000000	0.00000000000000	-0.07545300000000	0.00000000000000	19.89801800000000	0.00000000000000	0.00000000000000	7.67319300000000	0.00000000000000	
12.46495000000000	-42.32357000000000	779.53230399999995	55.17707200000000	0.09737700000000	0.00000000000000	0.12481600000000	-0.36266800000000	110.11016100000001	9.93883800000000	0.36204200000000	0.00000000000000	-0.07557700000000	0.00000000000000	19.92502600000000	0.00000000000000	0.00000000000000	7.80472500000000	0.00000000000000	
12.46661400000000	-43.07213200000000	777.19779500000004	54.89249100000000	0.09680400000000	0.00000000000000	0.12467900000000	0.07450600000000	115.48271099999999	9.97080700000000	0.36352200000000	0.00000000000000	-0.07570400000000	0.00000000000000	19.95392300000000	0.00000000000000	0.00000000000000	7.91916400000000	0.00000000000000	
12.46828400000000	-43.83899500000000	774.72276499999998	54.58060700000000	0.09623200000000	0.00000000000000	0.12453700000000	0.54542100000000	120.94192099999999	9.97925500000000	0.36488300000000	0.00000000000000	-0.07583500000000	0.00000000000000	19.98467300000000	0.00000000000000	0.00000000000000	8.02088400000000	0.00000000000000	
12.46994700000000	-44.62383600000000	772.10473100000002	54.24114600000000	0.09566300000000	0.00000000000000	0.12439100000000	1.04812900000000	126.51695200000000	9.96857700000000	0.36613400000000	0.00000000000000	-0.07597000000000	0.00000000000000	20.01722200000000	0.00000000000000	0.00000000000000	8.11316000000000	0.00000000000000	
12.47161200000000	-45.42624300000000	769.34128799999996	53.87389000000000	0.09509400000000	0.00000000000000	0.12424100000000	1.58137600000000	132.22782799999999	9.94156100000000	0.36728100000000	0.00000000000000	-0.07610800000000	0.00000000000000	20.05150000000000	0.00000000000000	0.00000000000000	8.19810600000000	0.00000000000000	
12.47328100000000	-46.24570900000000	766.43010500000003	53.47867300000000	0.09452500000000	0.00000000000000	0.12408600000000	2.14455100000000	138.08544699999999	9.89945400000000	0.36833200000000	0.00000000000000	-0.07625100000000	0.00000000000000	20.08742300000000	0.00000000000000	0.00000000000000	8.27671600000000	0.00000000000000	
12.47494400000000	-47.08163500000000	763.36893599999996	53.05538900000000	0.09395600000000	0.00000000000000	0.12392700000000	2.73758300000000	144.09224100000000	9.84213800000000	0.36929100000000	0.00000000000000	-0.07639700000000	0.00000000000000	20.12488900000000	0.00000000000000	0.00000000000000	8.34897000000000	0.00000000000000	
12.47661600000000	-47.93332200000000	760.15562100000000	52.60398700000000	0.09338400000000	0.00000000000000	0.12376300000000	3.36082000000000	150.24331900000001	9.76836700000000	0.37016400000000	0.00000000000000	-0.07654600000000	0.00000000000000	20.16377900000000	0.00000000000000	0.00000000000000	8.41401100000000	0.00000000000000	
